<?xml version="1.0" encoding="UTF-8" standalone="no"?><!DOCTYPE svg PUBLIC "-//W3C//DTD SVG 1.1//EN" "http://www.w3.org/Graphics/SVG/1.1/DTD/svg11.dtd"><svg width="100%" height="100%" viewBox="0 0 132 234" version="1.1" xmlns="http://www.w3.org/2000/svg" xmlns:xlink="http://www.w3.org/1999/xlink" xml:space="preserve" xmlns:serif="http://www.serif.com/" style="fill-rule:evenodd;clip-rule:evenodd;stroke-linejoin:round;stroke-miterlimit:2;"><g id="Fondo"><path d="M34.142,202.056c-0.149,-0.248 -15.302,-15.951 -1.243,-36.517c0.603,-0.882 14.156,-11.92 15.128,-16.847c3.268,-16.571 -10.277,-15.759 -18.851,-32.274c-0.267,-0.515 -7.925,-18.557 6.892,-31.7c3.185,-2.825 2.926,-3.046 6.221,-5.791c1.525,-1.27 3.813,-4.549 4.108,-4.972c6.772,-9.705 -3.283,-19.482 -4.496,-20.661c-5.751,-5.592 -15.316,-11.353 -14.791,-26.763c0.18,-5.287 10.871,-9.775 11.823,1.511c1.051,12.467 11.987,12.287 19.412,26.917c2.99,5.89 2.937,15.851 0.557,21.097c-7.535,16.606 -24.746,19.252 -18.997,34.593c4.003,10.68 21.621,13.137 20.685,35.913c-0.822,20.008 -26.592,24.263 -20.906,41.14c3.166,9.397 12.631,10.708 18.668,23.259c1.587,3.299 6.668,19.403 -6.246,16.756c-4.811,-0.986 -2.049,-10.184 -7.531,-15.846c-4.616,-4.768 -4.895,-4.384 -9.716,-9.029c-0.24,-0.261 -0.479,-0.523 -0.719,-0.784Z" style="fill:#0ca9cd;fill-opacity:0.99;"/><path d="M79.28,40.654c18.016,-18.184 40.674,5.606 28.725,22.076c-0.813,1.121 -5.918,8.158 -15.505,7.691c-16.87,-0.823 -21.571,-21.232 -13.22,-29.767Z" style="fill:#ef2e60;fill-opacity:1;"/><path d="M75.243,186.51c0.007,-0.047 0.212,-7.953 8.636,-5.275c0.958,0.305 15.965,9.924 17.108,10.735c7.219,5.128 2.039,15.203 -7.513,9.802c-0.799,-0.452 -6.892,-3.897 -9.687,-6.156c-5.153,-4.163 -7.669,-2.526 -8.544,-9.106Z" style="fill:#f48fbd;fill-opacity:0.99;"/><path d="M32.386,61.417c-0.328,5.582 -1.733,5.045 -4.586,9.906c-7.612,12.969 -9.391,13.289 -10.752,13.535c-4.355,0.785 -11.337,-2.769 -5.834,-10.575c1.52,-2.157 6.284,-9.571 6.822,-10.408c6.451,-10.04 8.39,-8.208 11.719,-6.96c2.005,0.752 2.563,4.091 2.631,4.502Z" style="fill:#fddc64;fill-opacity:0.99;"/><path d="M90.771,114.238c-1.127,-6.278 -0.569,-6.25 -0.528,-12.688c0.037,-5.838 4.248,-8.437 7.681,-7.645c5.404,1.246 4.902,5.437 4.716,18.906c-0.083,6.027 -9.779,8.98 -11.869,1.427Z" style="fill:#f590be;fill-opacity:1;"/><path d="M92.139,136.292c0.87,-0.824 1.148,-0.929 1.268,-0.974c11.027,-4.155 9.35,9.04 9.237,17.992c-0.046,3.65 -4.404,8.431 -9.761,4.962c-3.916,-2.536 -3.491,-19.102 -0.743,-21.98Z" style="fill:#f58fbe;fill-opacity:1;"/><path d="M111.399,120.676c11.564,0.207 11.499,-0.107 13.541,0.163c3.163,0.418 4.686,4.907 4.397,6.199c-1.363,6.105 -3.198,5.824 -19.454,5.538c-4.352,-0.077 -6.603,-5.251 -4.985,-8.406c1.84,-3.587 2.452,-3.127 6.501,-3.494Z" style="fill:#f590be;fill-opacity:1;"/><path d="M70.898,120.676c6.056,0.109 5.99,-0.061 12.01,0.065c5.327,0.111 7.81,6.503 3.512,10.572c-2.188,2.071 -17.487,2.021 -20.537,-0.037c-1.902,-1.284 -2.643,-6.148 -1.452,-7.748c2.272,-3.052 2.701,-2.628 6.467,-2.852Z" style="fill:#f590bd;fill-opacity:1;"/><path d="M24.882,148.433c7.407,7.395 -7.49,17.053 -10.2,4.962c-0.363,-1.619 2.127,-9.601 10.2,-4.962Z" style="fill:#f490bd;fill-opacity:0.99;"/><path d="M58.668,191.222c-11.815,6.904 -13.465,-12.913 -2.704,-10.302c2.662,0.646 7.44,4.303 2.704,10.302Z" style="fill:#ef2d60;fill-opacity:0.99;"/></g></svg>