<?xml version="1.0" encoding="UTF-8" standalone="no"?><!DOCTYPE svg PUBLIC "-//W3C//DTD SVG 1.1//EN" "http://www.w3.org/Graphics/SVG/1.1/DTD/svg11.dtd"><svg width="100%" height="100%" viewBox="0 0 85 242" version="1.1" xmlns="http://www.w3.org/2000/svg" xmlns:xlink="http://www.w3.org/1999/xlink" xml:space="preserve" xmlns:serif="http://www.serif.com/" style="fill-rule:evenodd;clip-rule:evenodd;stroke-linejoin:round;stroke-miterlimit:2;"><g id="Fondo"><path d="M27.745,103.879c-0.728,-10.229 -7.754,-13.443 -11.697,-17.172c-14.94,-14.132 -11.163,-32.048 -2.24,-41.394c8.362,-8.759 12.656,-7.377 14.099,-20.978c0.598,-5.635 11.657,-6.935 11.768,1.535c0.132,10.021 -3.653,14.045 -6.493,17.881c-3.647,4.924 -4.359,4.151 -8.707,8.477c-1.33,1.323 -12.379,12.318 -1.838,23.373c3.995,4.19 4.312,3.738 6.313,5.697c9.874,9.666 10.733,15.902 10.731,22.578c-0.005,15.043 -8.739,19.908 -15.208,26.35c-15.195,15.132 0.312,25.105 3.713,28.334c0.895,0.849 7.457,7.08 9.452,12.182c8.694,22.234 -10.778,35.089 -13.17,37.48c-9.282,9.278 -4.944,11.674 -7.081,15.532c-2.839,5.125 -8.007,2.471 -8.641,2.146c-5.103,-2.621 -2.008,-13.403 0.112,-17.654c6.445,-12.922 23.935,-16.283 17.394,-32.971c-0.939,-2.396 -8.725,-9.854 -9.567,-10.36c-2.567,-1.542 -2.03,-2.055 -4.078,-4.256c-10.529,-11.317 -7.358,-28.732 1.193,-37.356c9.047,-9.126 11.856,-7.726 13.945,-19.423Z" style="fill:#fddc64;fill-opacity:0.99;"/><path d="M46.431,210.857c-0.375,-0.644 -3.676,-6.309 1.338,-9.218c2.433,-1.412 21.924,-2.877 22.364,-2.89c7.713,-0.241 9.228,7.761 3.847,11.073c-2.395,1.474 -12.499,2.077 -13.598,2.142c-10.548,0.629 -11.208,1.609 -13.951,-1.107Z" style="fill:#0caace;fill-opacity:0.99;"/><path d="M63.101,41.113c6.651,11.619 -12.407,14.008 -10.438,2.725c0.748,-4.284 6.581,-6.618 10.438,-2.725Z" style="fill:#f590be;fill-opacity:0.99;"/><path d="M53.352,162.813c-11.815,6.904 -13.465,-12.913 -2.704,-10.302c2.662,0.646 7.44,4.303 2.704,10.302Z" style="fill:#ef2d60;fill-opacity:0.99;"/></g></svg>