<?xml version="1.0" encoding="UTF-8" standalone="no"?><!DOCTYPE svg PUBLIC "-//W3C//DTD SVG 1.1//EN" "http://www.w3.org/Graphics/SVG/1.1/DTD/svg11.dtd"><svg width="100%" height="100%" viewBox="0 0 384 384" version="1.1" xmlns="http://www.w3.org/2000/svg" xmlns:xlink="http://www.w3.org/1999/xlink" xml:space="preserve" xmlns:serif="http://www.serif.com/" style="fill-rule:evenodd;clip-rule:evenodd;stroke-linejoin:round;stroke-miterlimit:2;"><g id="Fondo"><path d="M95.151,189.647c11.921,-10.346 13.625,-12.384 13.087,-21.263c-0.731,-12.074 -26.794,-18.563 -20.477,-43.611c4.129,-16.372 19.57,-18.974 20.429,-29.167c0.97,-11.5 -3.354,-12.394 -11.539,-20.51c-15.018,-14.892 -11.907,-32.957 1.754,-44.235c11.22,-9.263 9.674,-14.375 10.346,-17.078c2.254,-9.062 11.735,-4.545 11.815,0.833c0.173,11.618 -6.669,17.969 -7.176,18.587c-5.038,6.146 -9.654,8.315 -11.54,11.562c-11.776,20.265 14.157,23.007 17.912,41.081c4.328,20.832 -10.263,28.384 -14.798,33.38c-19.964,21.993 13.652,26.748 15.469,47.641c2.037,23.427 -17.746,27.89 -20.727,37.621c-5.46,17.824 15.726,18.813 20.174,38.093c3.6,15.6 -10.638,14.904 -11.546,5.298c-0.875,-9.263 -3.568,-8.718 -11.684,-16.782c-17.335,-17.222 -7.79,-35.101 -1.501,-41.45Z" style="fill:#ee2d60;fill-opacity:0.99;"/><path d="M303.745,183.379c-0.728,-10.229 -7.754,-13.443 -11.697,-17.172c-14.94,-14.132 -11.163,-32.048 -2.24,-41.394c8.362,-8.759 12.656,-7.377 14.099,-20.978c0.598,-5.635 11.657,-6.935 11.768,1.535c0.132,10.021 -3.653,14.045 -6.493,17.881c-3.647,4.924 -4.359,4.151 -8.707,8.477c-1.33,1.323 -12.379,12.318 -1.838,23.373c3.995,4.19 4.312,3.738 6.313,5.697c9.874,9.666 10.733,15.902 10.731,22.578c-0.005,15.043 -8.739,19.908 -15.208,26.35c-15.195,15.132 0.312,25.105 3.713,28.334c0.895,0.849 7.457,7.08 9.452,12.182c8.694,22.234 -10.778,35.089 -13.17,37.48c-9.282,9.278 -4.944,11.674 -7.081,15.532c-2.839,5.125 -8.007,2.471 -8.641,2.146c-5.103,-2.621 -2.008,-13.403 0.112,-17.654c6.445,-12.922 23.935,-16.283 17.394,-32.971c-0.939,-2.396 -8.725,-9.854 -9.567,-10.36c-2.567,-1.542 -2.03,-2.055 -4.078,-4.256c-10.529,-11.317 -7.358,-28.732 1.193,-37.356c9.047,-9.126 11.856,-7.726 13.945,-19.423Z" style="fill:#fddc64;fill-opacity:0.99;"/><path d="M171.369,321.379c-0.149,-0.248 -15.302,-15.951 -1.243,-36.517c0.603,-0.882 14.156,-11.92 15.128,-16.847c3.268,-16.571 -10.277,-15.759 -18.851,-32.274c-0.267,-0.515 -7.925,-18.557 6.892,-31.7c3.185,-2.825 2.926,-3.046 6.221,-5.791c1.525,-1.27 3.813,-4.549 4.108,-4.972c6.772,-9.705 -3.283,-19.482 -4.496,-20.661c-5.751,-5.592 -15.316,-11.353 -14.791,-26.763c0.18,-5.287 10.871,-9.775 11.823,1.511c1.051,12.467 11.987,12.287 19.412,26.917c2.99,5.89 2.937,15.851 0.557,21.097c-7.535,16.606 -24.746,19.252 -18.997,34.593c4.003,10.68 21.621,13.137 20.685,35.913c-0.822,20.008 -26.592,24.263 -20.906,41.14c3.166,9.397 12.631,10.708 18.668,23.259c1.587,3.299 6.668,19.403 -6.246,16.756c-4.811,-0.986 -2.049,-10.184 -7.531,-15.846c-4.616,-4.768 -4.895,-4.384 -9.716,-9.029c-0.24,-0.261 -0.479,-0.523 -0.719,-0.784Z" style="fill:#0ca9cd;fill-opacity:0.99;"/><path d="M336.375,383.999l-9.75,0c-11.155,-5.469 -13.825,-10.28 -12.952,-21.407c0.953,-12.155 24.293,-23.76 34.242,-3.852c5.348,10.703 -3.281,22.383 -9.285,24.146c-1.219,0.358 -1.066,0.526 -2.255,1.113Z" style="fill:#fcdb64;fill-opacity:1;"/><path d="M212.152,68.142c18.016,-18.184 40.674,5.606 28.725,22.076c-0.813,1.121 -5.918,8.158 -15.505,7.691c-16.87,-0.823 -21.571,-21.232 -13.22,-29.767Z" style="fill:#ef2e60;fill-opacity:1;"/><path d="M117.856,314.354c-4.619,4.563 -16.412,8.881 -25.733,-0.721c-11.674,-12.024 -1.482,-33.352 17.03,-29.911c9.967,1.852 21.186,16.487 8.703,30.632Z" style="fill:#0daace;fill-opacity:1;"/><path d="M285.114,37.61c-3.837,4.007 -16.509,-1.108 -6.185,-11.431c13.861,-13.861 14.537,-14.041 16.218,-14.489c2.494,-0.665 13.408,2.481 3.467,12.423c-0.54,0.54 -6.258,6.258 -6.75,6.749c-3.395,3.385 -3.356,3.35 -6.749,6.748Z" style="fill:#0daace;fill-opacity:0.98;"/><path d="M206.25,140.627c0.007,-0.047 0.212,-7.953 8.636,-5.275c0.958,0.305 15.965,9.924 17.108,10.735c7.219,5.128 2.039,15.203 -7.513,9.802c-0.799,-0.452 -6.892,-3.897 -9.687,-6.156c-5.153,-4.163 -7.669,-2.526 -8.544,-9.106Z" style="fill:#f48fbd;fill-opacity:0.99;"/><path d="M151.502,326.636c-0.328,5.582 -1.733,5.045 -4.586,9.906c-7.612,12.969 -9.391,13.289 -10.752,13.535c-4.355,0.785 -11.337,-2.769 -5.834,-10.575c1.52,-2.157 6.284,-9.571 6.822,-10.408c6.451,-10.04 8.39,-8.208 11.719,-6.96c2.005,0.752 2.563,4.091 2.631,4.502Z" style="fill:#fddc64;fill-opacity:0.99;"/><path d="M44.255,277.174c1.247,5.028 0.542,5.084 2.025,11.928c1.901,8.773 -11.303,11.451 -12.328,1.547c-1.543,-14.896 -6.011,-23.244 1.671,-25.532c4.043,-1.204 7.418,2.906 7.67,5.23c0.373,3.44 0.631,3.348 0.962,6.827Z" style="fill:#fcdc64;fill-opacity:1;"/><path d="M322.431,290.357c-0.375,-0.644 -3.676,-6.309 1.338,-9.218c2.433,-1.412 21.924,-2.877 22.364,-2.89c7.713,-0.241 9.228,7.761 3.847,11.073c-2.395,1.474 -12.499,2.077 -13.598,2.142c-10.548,0.629 -11.208,1.609 -13.951,-1.107Z" style="fill:#0caace;fill-opacity:0.99;"/><path d="M66.138,87.613c4.57,4.799 0.103,10.444 -4.255,10.5c-8.709,0.111 -19.008,1.381 -18.961,-6.239c0.019,-3.064 2.804,-5.087 3.208,-5.24c3.292,-1.245 16.707,-2.137 20.008,0.98Z" style="fill:#fddc64;fill-opacity:1;"/><path d="M27.001,90.433c0.002,1 1.225,4.788 -3.49,7.203c-0.78,0.4 -17.027,1.828 -19.859,-1.497c-1.875,-2.202 -2.72,-10.375 6.473,-10.441c11.922,-0.085 15.188,-0.608 16.876,4.735Z" style="fill:#fddc64;fill-opacity:0.99;"/><path d="M227.999,233.561c-1.127,-6.278 -0.569,-6.25 -0.528,-12.688c0.037,-5.838 4.248,-8.437 7.681,-7.645c5.404,1.246 4.902,5.437 4.716,18.906c-0.083,6.027 -9.779,8.98 -11.869,1.427Z" style="fill:#f590be;fill-opacity:1;"/><path d="M229.367,255.616c0.87,-0.824 1.148,-0.929 1.268,-0.974c11.027,-4.155 9.35,9.04 9.237,17.992c-0.046,3.65 -4.404,8.431 -9.761,4.962c-3.916,-2.536 -3.491,-19.102 -0.743,-21.98Z" style="fill:#f58fbe;fill-opacity:1;"/><path d="M317.892,36.856c-1.669,-2.166 -1.784,-3.162 -1.82,-3.474c-1.01,-8.735 12.062,-6.975 17.304,-6.951c8.435,0.038 8.457,6.523 6.431,9.685c-2.433,3.796 -18.869,3.582 -21.915,0.741Z" style="fill:#ef2d60;fill-opacity:1;"/><path d="M358.402,36.851c-1.027,-1.389 -1.114,-1.764 -1.155,-1.94c-2.319,-10.041 8.176,-8.604 17.38,-8.478c6.85,0.094 8.392,5.55 5.706,9.701c-2.534,3.916 -19.169,3.432 -21.931,0.717Z" style="fill:#ee2d60;fill-opacity:1;"/><path d="M248.626,240c11.564,0.207 11.499,-0.107 13.541,0.163c3.163,0.418 4.686,4.907 4.397,6.199c-1.363,6.105 -3.198,5.824 -19.454,5.538c-4.352,-0.077 -6.603,-5.251 -4.985,-8.406c1.84,-3.587 2.452,-3.127 6.501,-3.494Z" style="fill:#f590be;fill-opacity:1;"/><path d="M29.247,118.869c0.149,-14.968 -0.229,-15.23 1.034,-16.576c0.284,-0.302 2.282,-2.429 4.587,-2.416c7.167,0.04 6.546,5.876 6.261,19.766c-0.037,1.791 -1.986,4.853 -5.511,4.871c-6.175,0.031 -6.083,-3.785 -6.371,-5.645Z" style="fill:#fddc65;fill-opacity:1;"/><path d="M29.25,64.883c1.608,-9.438 11.775,-5.653 11.898,-0.022c0.239,10.947 0.518,18.279 -3.982,18.947c-9.647,1.432 -7.817,-6.496 -7.916,-18.925Z" style="fill:#fddb65;fill-opacity:1;"/><path d="M208.126,240c6.056,0.109 5.99,-0.061 12.01,0.065c5.327,0.111 7.81,6.503 3.512,10.572c-2.188,2.071 -17.487,2.021 -20.537,-0.037c-1.902,-1.284 -2.643,-6.148 -1.452,-7.748c2.272,-3.052 2.701,-2.628 6.467,-2.852Z" style="fill:#f590bd;fill-opacity:1;"/><path d="M345.375,0l6.75,0c0.821,1.399 0.79,1.409 1.005,1.62c0.961,0.944 1.962,1.927 1.564,16.763c-0.224,8.359 -11.77,8.884 -11.83,-0.757c-0.086,-13.649 -0.278,-14.031 2.006,-16.255c0.84,-0.819 0.42,-1.14 0.505,-1.371Z" style="fill:#ef2e61;fill-opacity:1;"/><path d="M344.889,63.848c-1.951,-2.034 -1.989,-3.836 -1.996,-4.209c-0.192,-9.26 -1.621,-21.017 7.763,-18.895c3.42,0.773 4.517,2.506 4.024,18.898c-0.171,5.696 -6.873,6.864 -9.791,4.206Z" style="fill:#ee2d61;fill-opacity:1;"/><path d="M60.374,222.004c-0.707,-0.065 -6.743,-0.621 -6.156,-6.394c0.991,-9.749 17.122,-5.474 10.719,4.574c-0.794,1.246 -4.175,1.761 -4.564,1.82Z" style="fill:#f590be;fill-opacity:0.99;"/><path d="M60.004,364.874c-0.106,0.701 -1.01,6.676 -6.393,6.141c-8.877,-0.881 -6.414,-15.885 3.75,-11.364c0.115,0.051 0.001,0.137 1.126,1.102c1.755,1.504 1.251,1.793 1.517,4.121Z" style="fill:#f48fbe;fill-opacity:0.99;"/><path d="M339.101,120.613c6.651,11.619 -12.407,14.008 -10.438,2.725c0.748,-4.284 6.581,-6.618 10.438,-2.725Z" style="fill:#f590be;fill-opacity:0.99;"/><path d="M35.86,204.89c-4.836,-5.104 1.294,-11.367 5.017,-10.273c11.579,3.4 2.23,17.167 -5.017,10.273Z" style="fill:#fddc65;fill-opacity:0.99;"/><path d="M163.634,41.151c7.407,7.395 -7.49,17.053 -10.2,4.962c-0.363,-1.619 2.127,-9.601 10.2,-4.962Z" style="fill:#f490bd;fill-opacity:0.99;"/><path d="M270.896,349.64c-5.235,5.074 -14.681,-4.289 -7.045,-9.982c3.988,-2.974 13.76,3.234 7.045,9.982Z" style="fill:#fddc65;fill-opacity:0.99;"/><path d="M64.39,194.353c-4.935,-8.461 3.402,-11.315 6.359,-9.946c9.98,4.617 0.181,16.102 -6.359,9.946Z" style="fill:#0daace;fill-opacity:0.99;"/><path d="M329.352,242.313c-11.815,6.904 -13.465,-12.913 -2.704,-10.302c2.662,0.646 7.44,4.303 2.704,10.302Z" style="fill:#ef2d60;fill-opacity:0.99;"/></g></svg>