<?xml version="1.0" encoding="UTF-8" standalone="no"?><!DOCTYPE svg PUBLIC "-//W3C//DTD SVG 1.1//EN" "http://www.w3.org/Graphics/SVG/1.1/DTD/svg11.dtd"><svg width="100%" height="100%" viewBox="0 0 135 183" version="1.1" xmlns="http://www.w3.org/2000/svg" xmlns:xlink="http://www.w3.org/1999/xlink" xml:space="preserve" xmlns:serif="http://www.serif.com/" style="fill-rule:evenodd;clip-rule:evenodd;stroke-linejoin:round;stroke-miterlimit:2;"><g id="Fondo"><path d="M95.151,189.647c11.921,-10.346 13.625,-12.384 13.087,-21.263c-0.731,-12.074 -26.794,-18.563 -20.477,-43.611c4.129,-16.372 19.57,-18.974 20.429,-29.167c0.97,-11.5 -3.354,-12.394 -11.539,-20.51c-15.018,-14.892 -11.907,-32.957 1.754,-44.235c11.22,-9.263 9.674,-14.375 10.346,-17.078c2.254,-9.062 11.735,-4.545 11.815,0.833c0.173,11.618 -6.669,17.969 -7.176,18.587c-5.038,6.146 -9.654,8.315 -11.54,11.562c-11.776,20.265 14.157,23.007 17.912,41.081c4.328,20.832 -10.263,28.384 -14.798,33.38c-19.964,21.993 13.652,26.748 15.469,47.641c2.037,23.427 -17.746,27.89 -20.727,37.621c-5.46,17.824 15.726,18.813 20.174,38.093c3.6,15.6 -10.638,14.904 -11.546,5.298c-0.875,-9.263 -3.568,-8.718 -11.684,-16.782c-17.335,-17.222 -7.79,-35.101 -1.501,-41.45Z" style="fill:#ee2d60;fill-opacity:0.99;"/><path d="M87.259,87.613c4.57,4.799 0.103,10.444 -4.255,10.5c-8.709,0.111 -19.008,1.381 -18.961,-6.239c0.019,-3.064 2.804,-5.087 3.208,-5.24c3.292,-1.245 16.707,-2.137 20.008,0.98Z" style="fill:#fddc64;fill-opacity:1;"/><path d="M48.121,90.433c0.002,1 1.225,4.788 -3.49,7.203c-0.78,0.4 -17.027,1.828 -19.859,-1.497c-1.875,-2.202 -2.72,-10.375 6.473,-10.441c11.922,-0.085 15.188,-0.608 16.876,4.735Z" style="fill:#fddc64;fill-opacity:0.99;"/><path d="M50.368,118.869c0.149,-14.968 -0.229,-15.23 1.034,-16.576c0.284,-0.302 2.282,-2.429 4.587,-2.416c7.167,0.04 6.546,5.876 6.261,19.766c-0.037,1.791 -1.986,4.853 -5.511,4.871c-6.175,0.031 -6.083,-3.785 -6.371,-5.645Z" style="fill:#fddc65;fill-opacity:1;"/><path d="M50.371,64.883c1.608,-9.438 11.775,-5.653 11.898,-0.022c0.06,2.77 0.123,5.309 0.111,7.566c-0.037,6.665 -0.732,10.882 -4.093,11.381c-9.647,1.432 -7.817,-6.496 -7.916,-18.925Z" style="fill:#fddb65;fill-opacity:1;"/><path d="M68.209,175.883c-0.707,-0.065 -6.743,-0.621 -6.156,-6.394c0.991,-9.749 17.122,-5.474 10.719,4.574c-0.794,1.246 -4.175,1.761 -4.564,1.82Z" style="fill:#f590be;fill-opacity:0.99;"/><path d="M43.695,158.77c-4.836,-5.104 1.294,-11.367 5.017,-10.273c11.579,3.4 2.23,17.167 -5.017,10.273Z" style="fill:#fddc65;fill-opacity:0.99;"/><path d="M72.225,148.232c-4.935,-8.461 3.402,-11.315 6.359,-9.946c9.98,4.617 0.181,16.102 -6.359,9.946Z" style="fill:#0daace;fill-opacity:0.99;"/></g></svg>