<?xml version="1.0" encoding="UTF-8" standalone="no"?><!DOCTYPE svg PUBLIC "-//W3C//DTD SVG 1.1//EN" "http://www.w3.org/Graphics/SVG/1.1/DTD/svg11.dtd"><svg width="100%" height="100%" viewBox="0 0 47 47" version="1.1" xmlns="http://www.w3.org/2000/svg" xmlns:xlink="http://www.w3.org/1999/xlink" xml:space="preserve" xmlns:serif="http://www.serif.com/" style="fill-rule:evenodd;clip-rule:evenodd;stroke-linejoin:round;stroke-miterlimit:2;"><rect id="Mesa-de-trabajo1" serif:id="Mesa de trabajo1" x="0" y="-0" width="46.273" height="46.286" style="fill:none;"/><clipPath id="_clip1"><rect x="0" y="-0" width="46.273" height="46.286"/></clipPath><g clip-path="url(#_clip1)"><g id="Fondo"><path d="M21.224,46.412c-9.807,-0.219 -14.679,0.197 -16.536,-0.262c-3.088,-0.764 -3.939,-2.631 -4.365,-3.923c-0.456,-1.384 -0.401,-1.411 -0.401,-23.965c-0,-13.318 -0.173,-13.437 1.072,-15.738c1.198,-2.212 4.61,-2.693 5.982,-2.661c9.432,0.222 32.568,-0.226 34.533,0.26c3.449,0.853 4.083,3.059 4.359,3.924c0.459,1.439 0.405,1.467 0.405,29.214c-0,7.588 0.652,11.406 -4.764,12.889c-1.105,0.303 -1.123,0.262 -20.286,0.262Z"/><path d="M14.474,43.36c-6.57,0 -8.625,0.531 -10.788,-3.199c-0.899,-1.55 -0.781,-1.655 -0.781,-18.9c0,-13.151 -0.249,-14.134 1.405,-16.226c1.641,-2.076 4.479,-2.113 4.906,-2.119c5.427,-0.072 26.456,-0.2 28.54,0.026c0.572,0.062 4.452,0.482 5.376,4.785c0.18,0.836 0.162,0.844 0.161,26.284c-0,1.221 0.823,7.387 -4.059,9.028c-1.097,0.369 -1.122,0.2 -14.259,0.43c-1.075,0.019 -8.158,-0.03 -10.501,-0.109Z" style="fill:#fefefe;"/><path d="M11.5,21.346c0.514,0.562 0.528,0.528 1.014,1.108c1.753,2.096 12.395,2.189 17.755,1.346c2.656,-0.418 2.84,-0.358 4.452,-2.527c0.586,0.147 8.472,1.698 2.203,4.373c-2.3,0.981 -0.997,2.792 -3.619,8.403c-0.952,2.038 -4.279,6.695 -8.35,7.366c-8.854,1.461 -12.722,-9.119 -13.241,-11.218c-0.798,-3.225 -0.229,-3.708 -1.753,-4.406c-0.453,-0.207 -0.45,-0.192 -0.901,-0.41c-0.155,-0.075 -1.568,-0.76 -1.739,-1.276c-0.439,-1.327 1.68,-2.044 1.895,-2.117c0.18,-0.061 0.169,-0.048 2.284,-0.642Z" style="fill:#010101;"/><path d="M12.191,19.023c-0.15,-0.836 -0.576,-3.205 -1.265,-10.537c-0.207,-2.206 0.661,-2.259 2.846,-2.789c9.06,-2.194 20.334,-0.172 21.433,0.862c0.732,0.688 0.422,1.835 -0.204,7.243c-0.03,0.257 -0.666,3.906 -0.875,5.264c-0.378,0.102 -0.657,0.453 -1.035,0.555c-0.223,0.06 -0.458,-0.108 -0.688,-0.089c-1.623,0.132 -7.722,1.827 -17.898,0.065c-1.321,-0.229 -1.309,0.097 -1.418,0.066c-0.353,-0.102 -0.542,-0.539 -0.895,-0.641Z"/><path d="M12.191,19.023c0.353,0.102 0.992,0.346 2.313,0.575c10.176,1.761 16.275,0.067 17.898,-0.065c0.231,-0.019 1.345,-0.364 1.723,-0.466c0.06,0.232 0.022,0.742 0.416,1.61c0.13,0.285 0.046,0.303 0.179,0.595c-1.612,2.169 -1.796,2.11 -4.452,2.527c-5.36,0.843 -16.002,0.75 -17.755,-1.346c-0.485,-0.58 -0.5,-0.546 -1.014,-1.108c0.13,-0.332 0.591,-1.88 0.692,-2.322Z" style="fill:#7b7b7b;"/><path d="M16.008,28.295c0.299,0.109 3.719,1.378 3.826,1.924c0.239,1.214 -0.345,1.089 -1.583,1.038c-0.226,-0.009 -2.33,-0.096 -2.782,-0.506c-0.532,-0.482 -0.355,-2.782 0.539,-2.456Z" style="fill:#f8f8f8;"/><path d="M26.913,30.16c0.08,-0.163 3.31,-2.055 3.955,-1.85c0.817,0.26 0.839,2.007 0.014,2.556c-0.647,0.43 -2.726,0.396 -2.965,0.392c-1.03,-0.017 -1.457,-0.167 -1.003,-1.098Z" style="fill:#ebebeb;"/></g></g></svg>