<?xml version="1.0" encoding="UTF-8" standalone="no"?><!DOCTYPE svg PUBLIC "-//W3C//DTD SVG 1.1//EN" "http://www.w3.org/Graphics/SVG/1.1/DTD/svg11.dtd"><svg width="100%" height="100%" viewBox="0 0 209 300" version="1.1" xmlns="http://www.w3.org/2000/svg" xmlns:xlink="http://www.w3.org/1999/xlink" xml:space="preserve" xmlns:serif="http://www.serif.com/" style="fill-rule:evenodd;clip-rule:evenodd;stroke-linejoin:round;stroke-miterlimit:2;"><g id="Fondo"><path d="M81.375,300.026c-51.754,-0.51 -62.125,2.67 -73.165,-8.987c-9.878,-10.431 -8.361,-20.921 -8.362,-23.664c-0.044,-222.175 -0.857,-222.183 0.084,-241.478c0.308,-6.324 6.185,-19.915 20.769,-24.513c4.883,-1.539 4.989,-1.358 135.674,-1.358c18.719,0 43.414,-3.924 51.478,22.18c0.874,2.829 0.778,2.868 0.778,232.419c0,11.789 3.65,33.704 -18.635,43.203c-5.886,2.509 -6.121,2.198 -108.622,2.198Z"/><path d="M65.625,16.598c22.843,0.015 110.501,0.007 114.004,0.206c4.718,0.268 12.136,4.133 12.524,12.833c0.169,3.796 0.007,235.077 -0.018,238.487c-0.012,1.613 -0.108,14.794 -13.245,15.205c-4.026,0.126 -106.788,0.003 -107.266,0.002c-46.96,-0.081 -49.174,1.078 -53.718,-7.115c-1.577,-2.843 -1.781,-3.007 -1.737,-69.592c0.118,-178.358 -0.236,-178.525 0.965,-181.391c4.237,-10.115 10.045,-8.62 48.491,-8.636Z" style="fill:#fefefe;"/><path d="M64.065,142.576c1.339,2.211 1.002,2.261 1.341,4.838c0.651,4.947 43.213,10.554 73.622,2.612c5.227,-1.365 3.255,-4.101 4.425,-6.605c0.282,-0.604 0.442,-0.36 0.987,-0.804c1.532,0.361 16.73,3.939 18.117,7.679c2.278,6.143 -12.675,9.334 -12.826,9.384c-2.541,0.843 -1.489,17.219 -11.698,33.981c-24.706,40.569 -69.612,24.525 -77.847,-30.51c-0.923,-6.171 -4.376,-2.842 -10.907,-7.027c-13.1,-8.396 13.059,-13.09 14.786,-13.548Z"/><path d="M144.058,134.549c-3.029,2.031 -14.864,3.649 -16.183,3.829c-36.853,5.037 -60.876,-3.093 -63.529,-3.08c-1.555,-7.535 -3.114,-25.871 -5.589,-42.657c-1.587,-10.758 71.117,-12.847 89.445,-3.138c2.207,1.169 0.892,3.724 -4.144,45.045Z"/><path d="M144.058,134.549c0.065,4.649 -0.812,4.708 0.382,8.068c-0.545,0.444 -0.705,0.201 -0.987,0.804c-1.17,2.504 0.802,5.24 -4.425,6.605c-30.409,7.942 -72.97,2.335 -73.622,-2.612c-0.339,-2.576 -0.002,-2.627 -1.341,-4.838c0.023,-0.989 0.189,-0.92 0.213,-1.944c0.01,-0.427 0.005,-0.395 0.067,-5.334c2.654,-0.014 26.676,8.117 63.529,3.08c1.318,-0.18 13.154,-1.798 16.183,-3.829Z" style="fill:#7c7c7c;"/><path d="M21.779,268.128c0.268,-4.982 1.742,-7.539 6.483,-12.626c11.146,-11.961 12.242,-11.388 13.242,-10.479c6.664,6.052 25.967,21.217 13.492,31.186c-6.722,5.372 -14.058,-2.074 -15.432,-1.076c-9.201,6.684 -16.948,1.897 -17.785,-7.005Z"/><path d="M167.722,47.766c-8.761,10.003 -23.479,-9.907 -6.136,-13.79c2.418,-0.541 -3.5,-12.357 10.514,-11.584c3.835,0.211 7.239,4.627 6.415,9.419c-0.388,2.258 0.29,2.257 2.543,2.622c9.877,1.601 6.552,19.894 -5.236,15.582c-1.832,-0.67 -5.164,-4.827 -3.815,-0.877c1.252,3.668 3.818,6.899 2.297,7.161c-0.687,0.118 -9.475,1.632 -8.648,-1.084c0.178,-0.583 0.514,-0.394 3.348,-6.845c-0.095,-0.217 0.118,-0.493 0.023,-0.709c-0.255,-0.582 -0.513,-0.561 -0.577,-0.556c-0.567,0.046 -0.172,0.616 -0.727,0.66Z"/><path d="M186.792,259.858c-1.261,8.649 -8.36,5.982 -14.9,17.129c-1.661,2.831 -1.577,-2.017 -8.969,-7.849c-0.193,-0.152 -10.175,-5.121 -7.517,-13.078c1.654,-4.953 7.121,-7.471 12.146,-5.606c4.737,1.758 -2.604,-6.529 0.786,-6.585c6.32,-0.104 6.432,0.545 6.286,1.033c-0.111,0.372 -0.421,0.14 -1.946,4.444c-1.508,4.254 13.211,-5.818 14.115,10.513Z" style="fill:#dd2e44;"/><path d="M23.65,42.356c-2.224,-3.28 -1.883,-3.717 0.455,-6.93c4.982,-6.846 8.999,-13.929 10.73,-12.501c0.377,0.311 10.611,14.536 10.94,15.139c0.758,1.392 0.764,1.879 -10.447,16.827c-1.814,2.419 -2.967,-0.593 -11.678,-12.536Z" style="fill:#dd2e44;"/><path d="M79.254,168.138c6.459,3.504 18.009,8.589 12.753,10.32c-1.093,0.36 -1.109,0.303 -14.377,0.208c-5.062,-0.036 -4.127,-12.039 -0.786,-11.524c1.15,0.177 1.02,0.318 2.41,0.996Z" style="fill:#fcfcfc;"/><path d="M122.759,171.615c3.424,-1.807 3.307,-1.819 6.771,-3.717c6.466,-3.541 5.047,8.776 3.525,10.138c-1.22,1.091 -15.832,0.586 -16.531,0.342c-4.647,-1.63 5.979,-6.62 6.235,-6.763Z" style="fill:#fcfcfc;"/><path d="M167.722,47.766c0.555,-0.045 0.16,-0.615 0.727,-0.66c0.064,-0.005 0.322,-0.026 0.577,0.556c0.095,0.217 -0.118,0.493 -0.023,0.709c-0.073,-0.101 -0.206,-0.148 -0.279,-0.249c-0.345,-0.479 -0.447,-0.159 -1.003,-0.356Z" style="fill:#909090;"/></g></svg>